<?xml version="1.0" standalone="no"?><!DOCTYPE svg PUBLIC "-//W3C//DTD SVG 1.1//EN" "http://www.w3.org/Graphics/SVG/1.1/DTD/svg11.dtd"><svg t="1717058571669" class="icon" viewBox="0 0 1024 1024" version="1.1" xmlns="http://www.w3.org/2000/svg" p-id="15927" xmlns:xlink="http://www.w3.org/1999/xlink" width="200" height="200"><path d="M546.133333 648.533333c27.306667 0 47.786667 10.24 68.266667 27.306667-3.413333-34.133333-34.133333-61.44-68.266667-61.44s-64.853333 27.306667-68.266666 61.44c20.48-17.066667 40.96-27.306667 68.266666-27.306667zM136.533333 443.733333h750.933334c40.96 0 78.506667 20.48 102.4 47.786667V290.133333c0-102.4-85.333333-187.733333-187.733334-187.733333h-580.266666C119.466667 102.4 34.133333 187.733333 34.133333 290.133333v201.386667c23.893333-27.306667 61.44-47.786667 102.4-47.786667zM273.066667 648.533333c27.306667 0 47.786667 10.24 68.266666 27.306667-3.413333-34.133333-34.133333-61.44-68.266666-61.44s-64.853333 27.306667-68.266667 61.44c20.48-17.066667 40.96-27.306667 68.266667-27.306667z" fill="#2c2c2c" p-id="15928"></path><path d="M802.133333 699.733333m-17.066666 0a17.066667 17.066667 0 1 0 34.133333 0 17.066667 17.066667 0 1 0-34.133333 0Z" fill="#2c2c2c" p-id="15929"></path><path d="M887.466667 477.866667H136.533333c-54.613333 0-102.4 47.786667-102.4 102.4v238.933333c0 54.613333 47.786667 102.4 102.4 102.4h750.933334c54.613333 0 102.4-47.786667 102.4-102.4v-238.933333c0-54.613333-47.786667-102.4-102.4-102.4z m-512 273.066666c0 58.026667-44.373333 102.4-102.4 102.4-54.613333 0-98.986667-44.373333-102.4-98.986666v-68.266667c0-54.613333 47.786667-102.4 102.4-102.4s102.4 47.786667 102.4 102.4V750.933333z m273.066666 0c0 58.026667-44.373333 102.4-102.4 102.4-54.613333 0-98.986667-44.373333-102.4-98.986666v-68.266667c0-54.613333 47.786667-102.4 102.4-102.4s102.4 47.786667 102.4 102.4V750.933333z m153.6 0c-27.306667 0-51.2-23.893333-51.2-51.2s23.893333-51.2 51.2-51.2 51.2 23.893333 51.2 51.2-23.893333 51.2-51.2 51.2z" fill="#2c2c2c" p-id="15930"></path></svg>