<?xml version="1.0" standalone="no"?><!DOCTYPE svg PUBLIC "-//W3C//DTD SVG 1.1//EN" "http://www.w3.org/Graphics/SVG/1.1/DTD/svg11.dtd"><svg t="1717058519422" class="icon" viewBox="0 0 1024 1024" version="1.1" xmlns="http://www.w3.org/2000/svg" p-id="14586" xmlns:xlink="http://www.w3.org/1999/xlink" width="200" height="200"><path d="M842.481747 1014.587905l-265.576957-265.576957a33.092208 33.092208 0 0 1-9.412095-27.097243l8.812599-77.45495a33.511855 33.511855 0 0 1 29.375329-29.25543l77.45495-8.333001a32.492711 32.492711 0 0 1 27.097242 9.412095l265.517008 265.576957a32.972308 32.972308 0 0 1 0 46.46098l-86.327499 86.267549a35.969791 35.969791 0 0 1-23.97986 9.412095 33.511855 33.511855 0 0 1-22.960717-9.412095z m-203.04947-337.45659l-4.436274 36.509338 231.105907 230.926059 39.866518-39.806569-231.285756-231.225807z m-475.220889 308.680757a126.553715 126.553715 0 0 1-125.894268-126.733564V126.733564A126.613664 126.613664 0 0 1 164.211388 0H783.251491a127.033312 127.033312 0 0 1 126.673614 126.733564v503.876822a33.332006 33.332006 0 0 1-33.212107 33.272056 33.332006 33.332006 0 0 1-33.212107-33.272056V126.733564a60.429249 60.429249 0 0 0-60.30935-60.3693H164.151438a60.429249 60.429249 0 0 0-60.309349 60.3693V859.678005a60.429249 60.429249 0 0 0 60.309349 60.2494h441.409286a33.272057 33.272057 0 0 1 33.212107 33.212107 33.511855 33.511855 0 0 1-33.212107 32.67256z m125.894269-298.189567a33.272057 33.272057 0 0 1-33.212107-33.152158 33.272057 33.272057 0 0 1 33.212107-33.212107h154.310403a33.272057 33.272057 0 0 1 33.212107 33.212107 33.272057 33.272057 0 0 1-33.212107 33.152158z m0.599496-182.48674a33.332006 33.332006 0 0 1-33.212107-33.212107 33.272057 33.272057 0 0 1 33.212107-33.212107h366.232422a33.272057 33.272057 0 0 1 33.212107 33.212107 33.691704 33.691704 0 0 1-33.212107 33.212107z m0-183.206136a33.272057 33.272057 0 0 1-33.212107-33.212107 33.272057 33.272057 0 0 1 33.212107-33.092207h366.232422a33.272057 33.272057 0 0 1 33.212107 33.092207 33.272057 33.272057 0 0 1-33.212107 33.212107z" fill="#2c2c2c" p-id="14587"></path></svg>