<?xml version="1.0" standalone="no"?><!DOCTYPE svg PUBLIC "-//W3C//DTD SVG 1.1//EN" "http://www.w3.org/Graphics/SVG/1.1/DTD/svg11.dtd"><svg t="1717058596096" class="icon" viewBox="0 0 1024 1024" version="1.1" xmlns="http://www.w3.org/2000/svg" p-id="19351" xmlns:xlink="http://www.w3.org/1999/xlink" width="200" height="200"><path d="M151.466667 209.493333V810.666667h725.333333V209.493333h-725.333333z m312.746666 30.72h93.013334v61.866667h-93.013334V240.213333zM287.573333 785.92H194.56v-61.866667h93.013333v61.866667z m0-483.413333H194.56V240.213333h93.013333v62.293334zM422.4 785.92H329.386667v-61.866667H422.4v61.866667z m0-483.413333H329.386667V240.213333H422.4v62.293334z m134.826667 483.413333h-93.013334v-61.866667h93.013334v61.866667z m7.68-264.533333l-84.053334 84.053333c-7.68 7.68-21.333333 2.133333-21.333333-8.96v-168.106667c0-11.093333 13.226667-16.64 21.333333-8.96l84.053334 84.053334c4.693333 5.12 4.693333 12.8 0 17.92z m127.146666 264.533333h-93.013333v-61.866667h93.013333v61.866667z m0-483.413333h-93.013333V240.213333h93.013333v62.293334z m134.826667 483.413333H733.866667v-61.866667h93.013333v61.866667z m0-483.413333H733.866667V240.213333h93.013333v62.293334z" p-id="19352"></path></svg>