<?xml version="1.0" standalone="no"?><!DOCTYPE svg PUBLIC "-//W3C//DTD SVG 1.1//EN" "http://www.w3.org/Graphics/SVG/1.1/DTD/svg11.dtd"><svg t="1717059300165" class="icon" viewBox="0 0 1024 1024" version="1.1" xmlns="http://www.w3.org/2000/svg" p-id="36276" xmlns:xlink="http://www.w3.org/1999/xlink" width="200" height="200"><path d="M892.09 504.3L765.34 401.6c-6.46-5.26-16.15-0.68-16.15 7.74v71H543.71V274.93h71c8.34 0 13-9.69 7.74-16.15l-102.7-126.82c-3.98-4.88-11.42-4.88-15.4 0L401.56 258.7c-5.26 6.46-0.68 16.15 7.74 16.15h71v205.41H274.89v-71c0-8.34-9.69-13-16.23-7.74L131.92 504.3c-4.88 3.98-4.88 11.42 0 15.4l126.74 102.78c6.46 5.26 16.23 0.68 16.23-7.74v-71H480.3v205.41h-71c-8.34 0-13 9.69-7.74 16.15l102.78 126.74c3.98 4.88 11.42 4.88 15.4 0l102.7-126.67c5.26-6.46 0.6-16.15-7.74-16.15h-71V543.74h205.41v71c0 8.34 9.69 13 16.15 7.74L892.01 519.7c4.96-3.91 4.96-11.42 0.08-15.4z" fill="#2c2c2c" p-id="36277"></path></svg>